<?xml version="1.0" encoding="UTF-8"?>
<svg version="1.1" xmlns="http://www.w3.org/2000/svg" width="16" height="63">
<path d="M0 0 C1.29979048 2.41389661 2.10371771 4.43215711 2.75 7.125 C3.7486338 10.31140212 3.7486338 10.31140212 7.125 11.375 C8.07375 11.58125 9.0225 11.7875 10 12 C9.34 10.68 8.68 9.36 8 8 C10.88437779 9.29299694 12.87219421 10.65941363 15 13 C13.84826645 15.46800047 12.95216435 17.04783565 11 19 C10.01 19 9.02 19 8 19 C8.33 17.68 8.66 16.36 9 15 C8.071875 14.5875 7.14375 14.175 6.1875 13.75 C1.56182213 11.21041215 1.56182213 11.21041215 0 8 C-0.23492829 5.28005251 -0.13702151 2.74043023 0 0 Z " fill="#17A355" transform="translate(1,22)"/>
</svg>
